<svg xmlns="http://www.w3.org/2000/svg" viewBox="0 0 64 64" fill="none">
	<defs>
		<linearGradient id="g1" x1="10" y1="8" x2="54" y2="56" gradientUnits="userSpaceOnUse">
			<stop stop-color="#22D3EE" />
			<stop offset="1" stop-color="#8B5CF6" />
		</linearGradient>
		<linearGradient id="g2" x1="18" y1="18" x2="46" y2="48" gradientUnits="userSpaceOnUse">
			<stop stop-color="#F8FAFC" />
			<stop offset="1" stop-color="#E2E8F0" />
		</linearGradient>
	</defs>

	<rect x="4" y="4" width="56" height="56" rx="16" fill="#0F172A" />
	<path d="M20 17h24c3.314 0 6 2.686 6 6v11c0 3.314-2.686 6-6 6H31.5L22 47v-7h-2c-3.314 0-6-2.686-6-6V23c0-3.314 2.686-6 6-6Z" fill="url(#g1)" />
	<path d="M22 25c0-5.523 4.477-10 10-10s10 4.477 10 10v4c0 1.105-.895 2-2 2h-2v-6c0-2.761-2.239-5-5-5h-2c-2.761 0-5 2.239-5 5v6h-2c-1.105 0-2-.895-2-2v-4Z" fill="url(#g2)" opacity="0.95" />
	<rect x="26" y="24" width="12" height="11" rx="5.5" fill="#0F172A" />
	<path d="M20 34h2c1.105 0 2 .895 2 2v3c0 1.105-.895 2-2 2h-2c-2.21 0-4-1.79-4-4v-1c0-1.105.895-2 2-2h2Z" fill="#E2E8F0" />
	<path d="M44 34h-2c-1.105 0-2 .895-2 2v3c0 1.105.895 2 2 2h2c2.21 0 4-1.79 4-4v-1c0-1.105-.895-2-2-2h-2Z" fill="#E2E8F0" />
	<circle cx="24" cy="27" r="1.5" fill="#22D3EE" />
	<circle cx="40" cy="27" r="1.5" fill="#8B5CF6" />
</svg>